<svg xmlns="http://www.w3.org/2000/svg" xmlns:xlink="http://www.w3.org/1999/xlink" id="Capa_1" x="0" y="0" version="1.1" viewBox="0 0 1693 1261" xml:space="preserve" style="enable-background:new 0 0 1693 1261"><style type="text/css">.st0{fill:#354a20}.st1{fill:#fff}</style><g><path id="XMLID_2_" d="M3582.14,623.61c0-187.25-151.79-339.05-339.07-339.05c-187.27,0-339.07,151.8-339.07,339.05 c0,187.25,151.8,339.09,339.07,339.09C3430.35,962.71,3582.14,810.87,3582.14,623.61z" class="st0"/><path d="M3454.36,612.69c-2.86-112.4-93.84-200.45-207.14-200.45c-111.26,0-202.19,86.35-207,196.57 c-0.15,3.01-0.24,6.04-0.24,9.08c0,36.58,9.76,72.38,28.25,103.72c0.44,0.75,0.54,1.65,0.26,2.48l-36.71,108.45 c-0.5,1.47,0.89,2.89,2.37,2.42l112.93-35.91c0.77-0.24,1.6-0.17,2.31,0.21c29.99,15.94,63.76,24.35,97.83,24.35 c114.27,0,207.24-92.28,207.24-205.71C3454.46,616.39,3454.36,612.69,3454.36,612.69z M3107.33,710.53 c-18.58-27.48-28.37-59.38-28.37-92.65c0-5.32,0.26-10.61,0.8-16.18c8.36-85.97,80.35-150.79,167.45-150.79 c87.32,0,160.99,67.61,167.73,153.91c0.39,5.08,0.57,9.22,0.57,13.04c0,92.07-75.5,166.98-168.3,166.98 c-24.75,0-48.93-5.37-71.08-15.68c-6.18-2.88-17.91-9.88-21.61-12.12c-0.75-0.45-1.63-0.54-2.47-0.28l-56.84,18.08 c-1.3,0.41-2.52-0.83-2.09-2.13l18.37-54.13c0.32-0.93,0.17-1.96-0.41-2.76C3109.97,714.29,3108.13,711.72,3107.33,710.53z M3342.98,688.67c-4.52,12.61-26.07,23.84-35.14,24.65c-1.44,0.13-8.06,1.73-11.21,1.73c-7.19,0-19.86-2.65-49.53-14.24 c-23.22-9.08-46.24-26.41-66.62-49.87c-6.44-7.42-19.33-25.31-19.51-25.55c-8.46-11.31-14.85-23.68-18.13-34.99 c-1.78-6.29-2.65-11.96-2.65-17.35c0-23.46,11.46-35.58,16.97-41.4l0.99-1.05c5.61-6.09,23.23-6.22,25.11-6.36 c3.87-0.22,7.92,0.25,11.71,9.3c1.27,3.01,14.58,35.07,15.42,36.71c1.18,2.39,2.49,6.02,0.38,10.18c0,0-2.08,4.26-3.25,6.04 c-0.58,0.85-7.9,9.71-9.57,11.33c-2.7,2.71-4.13,4.43-1.94,8.12c3.56,6.06,13.36,21.5,27.5,33.99 c15.95,14.1,39.06,23.99,39.86,24.38c4.78,2.39,6.75,1.59,8.9-0.86c3.07-3.47,12.5-14.48,15.73-19.25 c4.24-6.31,8.97-4.61,13.14-3.11c4.88,1.75,30.83,14.46,34.36,16.21c0,0,8.94,4.3,10.23,6.36 C3347.36,666.33,3347.27,676.75,3342.98,688.67z" class="st1"/></g><g><path id="XMLID_10_" d="M1316.11,587.76c0-224.88-182.3-407.19-407.22-407.19c-224.9,0-407.21,182.3-407.21,407.19 C501.68,812.64,683.99,995,908.89,995C1133.81,995,1316.11,812.64,1316.11,587.76z" class="st0"/><path id="XMLID_9_" d="M944.77,491.33v-38.57c0-18.79,12.54-23.18,21.32-23.18c8.81,0,54.14,0,54.14,0v-82.6 l-74.54-0.33c-82.73,0-101.52,61.64-101.52,101.1v43.58h-47.83v96.49h48.24c0,109.33,0,241.17,0,241.17h96.46 c0,0,0-133.18,0-241.17h71.59l8.81-96.49H944.77z" class="st1"/></g><g><path id="XMLID_4_" d="M1279.64,2414.26c0-204.73-165.96-370.69-370.72-370.69c-204.75,0-370.71,165.96-370.71,370.69 c0,204.73,165.97,370.74,370.71,370.74C1113.68,2785,1279.64,2618.99,1279.64,2414.26z" class="st0"/><path d="M1139.94,2402.31c-3.12-122.9-102.6-219.16-226.48-219.16c-121.65,0-221.06,94.41-226.32,214.92 c-0.16,3.3-0.26,6.6-0.26,9.93c0,40,10.67,79.14,30.89,113.4c0.48,0.82,0.59,1.8,0.29,2.71l-40.13,118.57 c-0.54,1.61,0.97,3.16,2.6,2.64l123.47-39.27c0.84-0.27,1.75-0.18,2.52,0.23c32.79,17.43,69.71,26.62,106.96,26.62 c124.94,0,226.58-100.89,226.58-224.91C1140.05,2406.36,1139.94,2402.31,1139.94,2402.31z M760.52,2509.29 c-20.31-30.05-31.01-64.92-31.01-101.29c0-5.82,0.29-11.61,0.88-17.7c9.14-93.99,87.85-164.87,183.08-164.87 c95.46,0,176.01,73.92,183.38,168.28c0.43,5.55,0.62,10.08,0.62,14.26c0,100.67-82.54,182.57-184,182.57 c-27.06,0-53.5-5.87-77.72-17.14c-6.76-3.14-19.58-10.81-23.63-13.25c-0.82-0.5-1.79-0.59-2.7-0.3l-62.14,19.77 c-1.43,0.45-2.76-0.91-2.28-2.32l20.08-59.18c0.35-1.02,0.18-2.14-0.45-3.02C763.4,2513.39,761.39,2510.58,760.52,2509.29z M1018.16,2485.38c-4.94,13.79-28.51,26.06-38.41,26.95c-1.57,0.15-8.81,1.9-12.25,1.9c-7.86,0-21.71-2.9-54.16-15.57 c-25.39-9.92-50.56-28.87-72.84-54.53c-7.05-8.11-21.13-27.67-21.34-27.94c-9.25-12.37-16.24-25.89-19.82-38.25 c-1.95-6.88-2.89-13.08-2.89-18.97c0-25.65,12.53-38.9,18.55-45.27l1.08-1.14c6.14-6.66,25.39-6.8,27.45-6.95 c4.23-0.24,8.66,0.27,12.81,10.17c1.39,3.3,15.94,38.34,16.86,40.14c1.29,2.61,2.73,6.58,0.42,11.14c0,0-2.28,4.66-3.55,6.6 c-0.64,0.93-8.64,10.61-10.46,12.39c-2.95,2.96-4.51,4.84-2.12,8.88c3.89,6.63,14.6,23.51,30.07,37.16 c17.44,15.42,42.71,26.23,43.58,26.65c5.22,2.61,7.38,1.73,9.73-0.94c3.36-3.8,13.66-15.83,17.19-21.05 c4.63-6.9,9.8-5.04,14.37-3.4c5.33,1.91,33.71,15.81,37.57,17.73c0,0,9.77,4.7,11.19,6.95 C1022.94,2460.96,1022.85,2472.35,1018.16,2485.38z" class="st1"/></g></svg>