<svg xmlns="http://www.w3.org/2000/svg" xmlns:xlink="http://www.w3.org/1999/xlink" id="Capa_1" x="0" y="0" version="1.1" viewBox="0 0 1693 1261" xml:space="preserve" style="enable-background:new 0 0 1693 1261"><style type="text/css">.st0{fill:#354a20}.st1{fill:#fff}</style><g><path id="XMLID_2_" d="M3582.14-1160.39c0-187.25-151.79-339.04-339.07-339.04c-187.27,0-339.07,151.8-339.07,339.04 c0,187.25,151.8,339.09,339.07,339.09C3430.35-821.29,3582.14-973.13,3582.14-1160.39z" class="st0"/><path d="M3454.36-1171.31c-2.86-112.4-93.84-200.45-207.14-200.45c-111.26,0-202.19,86.35-207,196.57 c-0.15,3.02-0.24,6.04-0.24,9.08c0,36.58,9.76,72.38,28.25,103.72c0.44,0.75,0.54,1.65,0.26,2.48l-36.71,108.45 c-0.5,1.47,0.89,2.89,2.37,2.42l112.93-35.91c0.77-0.24,1.6-0.17,2.31,0.21c29.99,15.94,63.76,24.35,97.83,24.35 c114.27,0,207.24-92.28,207.24-205.71C3454.46-1167.61,3454.36-1171.31,3454.36-1171.31z M3107.33-1073.47 c-18.58-27.48-28.37-59.38-28.37-92.65c0-5.32,0.26-10.61,0.8-16.18c8.36-85.97,80.35-150.79,167.45-150.79 c87.32,0,160.99,67.61,167.73,153.91c0.39,5.08,0.57,9.22,0.57,13.04c0,92.07-75.5,166.98-168.3,166.98 c-24.75,0-48.93-5.37-71.08-15.68c-6.18-2.88-17.91-9.88-21.61-12.12c-0.75-0.45-1.63-0.54-2.47-0.28l-56.84,18.08 c-1.3,0.41-2.52-0.83-2.09-2.13l18.37-54.13c0.32-0.93,0.17-1.96-0.41-2.76C3109.97-1069.71,3108.13-1072.28,3107.33-1073.47z M3342.98-1095.33c-4.52,12.61-26.07,23.84-35.14,24.65c-1.44,0.13-8.06,1.73-11.21,1.73c-7.19,0-19.86-2.65-49.53-14.24 c-23.22-9.08-46.24-26.41-66.62-49.87c-6.44-7.42-19.33-25.31-19.51-25.55c-8.46-11.31-14.85-23.68-18.13-34.99 c-1.78-6.29-2.65-11.96-2.65-17.35c0-23.46,11.46-35.58,16.97-41.4l0.99-1.05c5.61-6.09,23.23-6.22,25.11-6.36 c3.87-0.22,7.92,0.25,11.71,9.3c1.27,3.01,14.58,35.07,15.42,36.71c1.18,2.39,2.49,6.02,0.38,10.18c0,0-2.08,4.26-3.25,6.04 c-0.58,0.85-7.9,9.71-9.57,11.33c-2.7,2.71-4.13,4.43-1.94,8.12c3.56,6.06,13.36,21.5,27.5,33.99 c15.95,14.1,39.06,23.99,39.86,24.38c4.78,2.39,6.75,1.59,8.9-0.86c3.07-3.47,12.5-14.48,15.73-19.25 c4.24-6.31,8.97-4.61,13.14-3.11c4.88,1.75,30.83,14.46,34.36,16.21c0,0,8.94,4.3,10.23,6.36 C3347.36-1117.67,3347.27-1107.25,3342.98-1095.33z" class="st1"/></g><g><path id="XMLID_10_" d="M1316.11-1196.24c0-224.88-182.3-407.19-407.22-407.19c-224.9,0-407.21,182.3-407.21,407.19 C501.68-971.36,683.99-789,908.89-789C1133.81-789,1316.11-971.36,1316.11-1196.24z" class="st0"/><path id="XMLID_9_" d="M944.77-1292.67v-38.57c0-18.79,12.54-23.18,21.32-23.18c8.81,0,54.14,0,54.14,0v-82.6 l-74.54-0.33c-82.73,0-101.52,61.64-101.52,101.1v43.58h-47.83v96.49h48.24c0,109.33,0,241.17,0,241.17h96.46 c0,0,0-133.18,0-241.17h71.59l8.81-96.49H944.77z" class="st1"/></g><g><path id="XMLID_7_" d="M1325.57,630.47c0-264.8-214.66-479.47-479.5-479.47c-264.83,0-479.5,214.67-479.5,479.47 c0,264.81,214.67,479.53,479.5,479.53C1110.9,1110,1325.57,895.27,1325.57,630.47z" class="st0"/><g><g><g><path d="M698.16,861.88L698.16,861.88L698.16,861.88L698.16,861.88z M957.87,401.98L957.87,401.98L957.87,401.98 L957.87,401.98z M845.39,803.79c89.35,0,162.03-72.66,162.03-161.96c0-89.36-72.69-162.07-162.03-162.07 c-89.34,0-162.03,72.71-162.03,162.07C683.36,731.14,756.05,803.79,845.39,803.79z M722.66,641.83 c0-67.72,55.05-122.82,122.73-122.82s122.73,55.1,122.73,122.82c0,67.67-55.06,122.73-122.73,122.73S722.66,709.5,722.66,641.83 z M1113.88,787.19c0,59.66-48.36,108.02-108.02,108.02H692.94c-59.66,0-108.02-48.36-108.02-108.02V474.27 c0-59.66,48.36-108.02,108.02-108.02h312.92c59.66,0,108.02,48.36,108.02,108.02V787.19z M1079.75,470.82 c0-38.59-18.98-70.44-61.74-70.44H699.92c-42.76,0-80.87,31.84-80.87,70.44v306c0,38.59,34.86,79.09,77.62,79.09l316.46,2.13 c42.76,0,66.62-42.64,66.62-81.23V470.82z M1035.22,469.51c0,14.16-11.54,25.55-25.6,25.55c-14.17,0-25.58-11.39-25.58-25.55 c0-14.07,11.41-25.61,25.58-25.61C1023.69,443.91,1035.22,455.44,1035.22,469.51z" class="st1"/></g></g></g></g></svg>